<svg id="visual" viewBox="0 0 900 600" width="900" height="600" xmlns="http://www.w3.org/2000/svg" xmlns:xlink="http://www.w3.org/1999/xlink" version="1.1"><rect x="0" y="0" width="900" height="600" fill="#FFFFFF"></rect><defs><linearGradient id="grad1_0" x1="33.3%" y1="100%" x2="100%" y2="0%"><stop offset="20%" stop-color="#374151" stop-opacity="1"></stop><stop offset="80%" stop-color="#374151" stop-opacity="1"></stop></linearGradient></defs><defs><linearGradient id="grad1_1" x1="33.3%" y1="100%" x2="100%" y2="0%"><stop offset="20%" stop-color="#374151" stop-opacity="1"></stop><stop offset="80%" stop-color="#515968" stop-opacity="1"></stop></linearGradient></defs><defs><linearGradient id="grad1_2" x1="33.3%" y1="100%" x2="100%" y2="0%"><stop offset="20%" stop-color="#6b727f" stop-opacity="1"></stop><stop offset="80%" stop-color="#515968" stop-opacity="1"></stop></linearGradient></defs><defs><linearGradient id="grad1_3" x1="33.3%" y1="100%" x2="100%" y2="0%"><stop offset="20%" stop-color="#6b727f" stop-opacity="1"></stop><stop offset="80%" stop-color="#878d97" stop-opacity="1"></stop></linearGradient></defs><defs><linearGradient id="grad1_4" x1="33.3%" y1="100%" x2="100%" y2="0%"><stop offset="20%" stop-color="#a4a8b0" stop-opacity="1"></stop><stop offset="80%" stop-color="#878d97" stop-opacity="1"></stop></linearGradient></defs><defs><linearGradient id="grad1_5" x1="33.3%" y1="100%" x2="100%" y2="0%"><stop offset="20%" stop-color="#a4a8b0" stop-opacity="1"></stop><stop offset="80%" stop-color="#c2c4ca" stop-opacity="1"></stop></linearGradient></defs><defs><linearGradient id="grad1_6" x1="33.3%" y1="100%" x2="100%" y2="0%"><stop offset="20%" stop-color="#e0e1e4" stop-opacity="1"></stop><stop offset="80%" stop-color="#c2c4ca" stop-opacity="1"></stop></linearGradient></defs><defs><linearGradient id="grad1_7" x1="33.3%" y1="100%" x2="100%" y2="0%"><stop offset="20%" stop-color="#e0e1e4" stop-opacity="1"></stop><stop offset="80%" stop-color="#ffffff" stop-opacity="1"></stop></linearGradient></defs><defs><linearGradient id="grad2_0" x1="0%" y1="100%" x2="66.7%" y2="0%"><stop offset="20%" stop-color="#374151" stop-opacity="1"></stop><stop offset="80%" stop-color="#374151" stop-opacity="1"></stop></linearGradient></defs><defs><linearGradient id="grad2_1" x1="0%" y1="100%" x2="66.7%" y2="0%"><stop offset="20%" stop-color="#515968" stop-opacity="1"></stop><stop offset="80%" stop-color="#374151" stop-opacity="1"></stop></linearGradient></defs><defs><linearGradient id="grad2_2" x1="0%" y1="100%" x2="66.7%" y2="0%"><stop offset="20%" stop-color="#515968" stop-opacity="1"></stop><stop offset="80%" stop-color="#6b727f" stop-opacity="1"></stop></linearGradient></defs><defs><linearGradient id="grad2_3" x1="0%" y1="100%" x2="66.7%" y2="0%"><stop offset="20%" stop-color="#878d97" stop-opacity="1"></stop><stop offset="80%" stop-color="#6b727f" stop-opacity="1"></stop></linearGradient></defs><defs><linearGradient id="grad2_4" x1="0%" y1="100%" x2="66.7%" y2="0%"><stop offset="20%" stop-color="#878d97" stop-opacity="1"></stop><stop offset="80%" stop-color="#a4a8b0" stop-opacity="1"></stop></linearGradient></defs><defs><linearGradient id="grad2_5" x1="0%" y1="100%" x2="66.7%" y2="0%"><stop offset="20%" stop-color="#c2c4ca" stop-opacity="1"></stop><stop offset="80%" stop-color="#a4a8b0" stop-opacity="1"></stop></linearGradient></defs><defs><linearGradient id="grad2_6" x1="0%" y1="100%" x2="66.7%" y2="0%"><stop offset="20%" stop-color="#c2c4ca" stop-opacity="1"></stop><stop offset="80%" stop-color="#e0e1e4" stop-opacity="1"></stop></linearGradient></defs><defs><linearGradient id="grad2_7" x1="0%" y1="100%" x2="66.7%" y2="0%"><stop offset="20%" stop-color="#ffffff" stop-opacity="1"></stop><stop offset="80%" stop-color="#e0e1e4" stop-opacity="1"></stop></linearGradient></defs><g transform="translate(900, 600)"><path d="M-297.5 0C-289.9 -52.4 -282.4 -104.9 -257.6 -148.7C-232.8 -192.6 -190.8 -227.8 -145 -251.1C-99.2 -274.5 -49.6 -286 0 -297.5L0 0Z" fill="#eff0f2"></path><path d="M-260.3 0C-253.7 -45.9 -247.1 -91.8 -225.4 -130.1C-203.7 -168.5 -167 -199.3 -126.9 -219.8C-86.8 -240.2 -43.4 -250.2 0 -260.3L0 0Z" fill="#d1d3d7"></path><path d="M-223.1 0C-217.4 -39.3 -211.8 -78.7 -193.2 -111.5C-174.6 -144.4 -143.1 -170.8 -108.8 -188.4C-74.4 -205.9 -37.2 -214.5 0 -223.1L0 0Z" fill="#b3b6bd"></path><path d="M-185.9 0C-181.2 -32.8 -176.5 -65.6 -161 -93C-145.5 -120.4 -119.3 -142.4 -90.6 -157C-62 -171.6 -31 -178.7 0 -185.9L0 0Z" fill="#959aa4"></path><path d="M-148.7 0C-145 -26.2 -141.2 -52.4 -128.8 -74.4C-116.4 -96.3 -95.4 -113.9 -72.5 -125.6C-49.6 -137.3 -24.8 -143 0 -148.7L0 0Z" fill="#79808b"></path><path d="M-111.5 0C-108.7 -19.7 -105.9 -39.3 -96.6 -55.8C-87.3 -72.2 -71.6 -85.4 -54.4 -94.2C-37.2 -102.9 -18.6 -107.2 0 -111.5L0 0Z" fill="#5e6673"></path><path d="M-74.4 0C-72.5 -13.1 -70.6 -26.2 -64.4 -37.2C-58.2 -48.1 -47.7 -56.9 -36.3 -62.8C-24.8 -68.6 -12.4 -71.5 0 -74.4L0 0Z" fill="#444d5c"></path><path d="M-37.2 0C-36.2 -6.6 -35.3 -13.1 -32.2 -18.6C-29.1 -24.1 -23.9 -28.5 -18.1 -31.4C-12.4 -34.3 -6.2 -35.7 0 -37.2L0 0Z" fill="#374151"></path></g><g transform="translate(0, 0)"><path d="M297.5 0C288.3 50.9 279.1 101.9 255.5 147.5C231.8 193.1 193.7 233.5 148.7 257.6C103.7 281.7 51.9 289.6 0 297.5L0 0Z" fill="#eff0f2"></path><path d="M260.3 0C252.3 44.6 244.2 89.1 223.5 129.1C202.9 169 169.5 204.3 130.1 225.4C90.8 246.5 45.4 253.4 0 260.3L0 0Z" fill="#d1d3d7"></path><path d="M223.1 0C216.2 38.2 209.3 76.4 191.6 110.6C173.9 144.9 145.3 175.1 111.5 193.2C77.8 211.3 38.9 217.2 0 223.1L0 0Z" fill="#b3b6bd"></path><path d="M185.9 0C180.2 31.8 174.4 63.7 159.7 92.2C144.9 120.7 121.1 145.9 93 161C64.8 176.1 32.4 181 0 185.9L0 0Z" fill="#959aa4"></path><path d="M148.7 0C144.1 25.5 139.6 50.9 127.7 73.7C115.9 96.6 96.9 116.7 74.4 128.8C51.9 140.9 25.9 144.8 0 148.7L0 0Z" fill="#79808b"></path><path d="M111.5 0C108.1 19.1 104.7 38.2 95.8 55.3C86.9 72.4 72.6 87.6 55.8 96.6C38.9 105.6 19.5 108.6 0 111.5L0 0Z" fill="#5e6673"></path><path d="M74.4 0C72.1 12.7 69.8 25.5 63.9 36.9C58 48.3 48.4 58.4 37.2 64.4C25.9 70.4 13 72.4 0 74.4L0 0Z" fill="#444d5c"></path><path d="M37.2 0C36 6.4 34.9 12.7 31.9 18.4C29 24.1 24.2 29.2 18.6 32.2C13 35.2 6.5 36.2 0 37.2L0 0Z" fill="#374151"></path></g></svg>