<svg id="visual" viewBox="0 0 900 600" width="900" height="600" xmlns="http://www.w3.org/2000/svg" xmlns:xlink="http://www.w3.org/1999/xlink" version="1.1"><rect x="0" y="0" width="900" height="600" fill="#FFFFFF"></rect><defs><linearGradient id="grad1_0" x1="33.3%" y1="0%" x2="100%" y2="100%"><stop offset="20%" stop-color="#374151" stop-opacity="1"></stop><stop offset="80%" stop-color="#374151" stop-opacity="1"></stop></linearGradient></defs><defs><linearGradient id="grad1_1" x1="33.3%" y1="0%" x2="100%" y2="100%"><stop offset="20%" stop-color="#374151" stop-opacity="1"></stop><stop offset="80%" stop-color="#515968" stop-opacity="1"></stop></linearGradient></defs><defs><linearGradient id="grad1_2" x1="33.3%" y1="0%" x2="100%" y2="100%"><stop offset="20%" stop-color="#6b727f" stop-opacity="1"></stop><stop offset="80%" stop-color="#515968" stop-opacity="1"></stop></linearGradient></defs><defs><linearGradient id="grad1_3" x1="33.3%" y1="0%" x2="100%" y2="100%"><stop offset="20%" stop-color="#6b727f" stop-opacity="1"></stop><stop offset="80%" stop-color="#878d97" stop-opacity="1"></stop></linearGradient></defs><defs><linearGradient id="grad1_4" x1="33.3%" y1="0%" x2="100%" y2="100%"><stop offset="20%" stop-color="#a4a8b0" stop-opacity="1"></stop><stop offset="80%" stop-color="#878d97" stop-opacity="1"></stop></linearGradient></defs><defs><linearGradient id="grad1_5" x1="33.3%" y1="0%" x2="100%" y2="100%"><stop offset="20%" stop-color="#a4a8b0" stop-opacity="1"></stop><stop offset="80%" stop-color="#c2c4ca" stop-opacity="1"></stop></linearGradient></defs><defs><linearGradient id="grad1_6" x1="33.3%" y1="0%" x2="100%" y2="100%"><stop offset="20%" stop-color="#e0e1e4" stop-opacity="1"></stop><stop offset="80%" stop-color="#c2c4ca" stop-opacity="1"></stop></linearGradient></defs><defs><linearGradient id="grad1_7" x1="33.3%" y1="0%" x2="100%" y2="100%"><stop offset="20%" stop-color="#e0e1e4" stop-opacity="1"></stop><stop offset="80%" stop-color="#ffffff" stop-opacity="1"></stop></linearGradient></defs><defs><linearGradient id="grad2_0" x1="0%" y1="0%" x2="66.7%" y2="100%"><stop offset="20%" stop-color="#374151" stop-opacity="1"></stop><stop offset="80%" stop-color="#374151" stop-opacity="1"></stop></linearGradient></defs><defs><linearGradient id="grad2_1" x1="0%" y1="0%" x2="66.7%" y2="100%"><stop offset="20%" stop-color="#515968" stop-opacity="1"></stop><stop offset="80%" stop-color="#374151" stop-opacity="1"></stop></linearGradient></defs><defs><linearGradient id="grad2_2" x1="0%" y1="0%" x2="66.7%" y2="100%"><stop offset="20%" stop-color="#515968" stop-opacity="1"></stop><stop offset="80%" stop-color="#6b727f" stop-opacity="1"></stop></linearGradient></defs><defs><linearGradient id="grad2_3" x1="0%" y1="0%" x2="66.7%" y2="100%"><stop offset="20%" stop-color="#878d97" stop-opacity="1"></stop><stop offset="80%" stop-color="#6b727f" stop-opacity="1"></stop></linearGradient></defs><defs><linearGradient id="grad2_4" x1="0%" y1="0%" x2="66.7%" y2="100%"><stop offset="20%" stop-color="#878d97" stop-opacity="1"></stop><stop offset="80%" stop-color="#a4a8b0" stop-opacity="1"></stop></linearGradient></defs><defs><linearGradient id="grad2_5" x1="0%" y1="0%" x2="66.7%" y2="100%"><stop offset="20%" stop-color="#c2c4ca" stop-opacity="1"></stop><stop offset="80%" stop-color="#a4a8b0" stop-opacity="1"></stop></linearGradient></defs><defs><linearGradient id="grad2_6" x1="0%" y1="0%" x2="66.7%" y2="100%"><stop offset="20%" stop-color="#c2c4ca" stop-opacity="1"></stop><stop offset="80%" stop-color="#e0e1e4" stop-opacity="1"></stop></linearGradient></defs><defs><linearGradient id="grad2_7" x1="0%" y1="0%" x2="66.7%" y2="100%"><stop offset="20%" stop-color="#ffffff" stop-opacity="1"></stop><stop offset="80%" stop-color="#e0e1e4" stop-opacity="1"></stop></linearGradient></defs><g transform="translate(900, 0)"><path d="M0 297.5C-52.4 289.9 -104.9 282.4 -148.7 257.6C-192.6 232.8 -227.8 190.8 -251.1 145C-274.5 99.2 -286 49.6 -297.5 0L0 0Z" fill="#eff0f2"></path><path d="M0 260.3C-45.9 253.7 -91.8 247.1 -130.1 225.4C-168.5 203.7 -199.3 167 -219.8 126.9C-240.2 86.8 -250.2 43.4 -260.3 0L0 0Z" fill="#d1d3d7"></path><path d="M0 223.1C-39.3 217.4 -78.7 211.8 -111.5 193.2C-144.4 174.6 -170.8 143.1 -188.4 108.8C-205.9 74.4 -214.5 37.2 -223.1 0L0 0Z" fill="#b3b6bd"></path><path d="M0 185.9C-32.8 181.2 -65.6 176.5 -93 161C-120.4 145.5 -142.4 119.3 -157 90.6C-171.6 62 -178.7 31 -185.9 0L0 0Z" fill="#959aa4"></path><path d="M0 148.7C-26.2 145 -52.4 141.2 -74.4 128.8C-96.3 116.4 -113.9 95.4 -125.6 72.5C-137.3 49.6 -143 24.8 -148.7 0L0 0Z" fill="#79808b"></path><path d="M0 111.5C-19.7 108.7 -39.3 105.9 -55.8 96.6C-72.2 87.3 -85.4 71.6 -94.2 54.4C-102.9 37.2 -107.2 18.6 -111.5 0L0 0Z" fill="#5e6673"></path><path d="M0 74.4C-13.1 72.5 -26.2 70.6 -37.2 64.4C-48.1 58.2 -56.9 47.7 -62.8 36.3C-68.6 24.8 -71.5 12.4 -74.4 0L0 0Z" fill="#444d5c"></path><path d="M0 37.2C-6.6 36.2 -13.1 35.3 -18.6 32.2C-24.1 29.1 -28.5 23.9 -31.4 18.1C-34.3 12.4 -35.7 6.2 -37.2 0L0 0Z" fill="#374151"></path></g><g transform="translate(0, 600)"><path d="M0 -297.5C50.9 -288.3 101.9 -279.1 147.5 -255.5C193.1 -231.8 233.5 -193.7 257.6 -148.7C281.7 -103.7 289.6 -51.9 297.5 0L0 0Z" fill="#eff0f2"></path><path d="M0 -260.3C44.6 -252.3 89.1 -244.2 129.1 -223.5C169 -202.9 204.3 -169.5 225.4 -130.1C246.5 -90.8 253.4 -45.4 260.3 0L0 0Z" fill="#d1d3d7"></path><path d="M0 -223.1C38.2 -216.2 76.4 -209.3 110.6 -191.6C144.9 -173.9 175.1 -145.3 193.2 -111.5C211.3 -77.8 217.2 -38.9 223.1 0L0 0Z" fill="#b3b6bd"></path><path d="M0 -185.9C31.8 -180.2 63.7 -174.4 92.2 -159.7C120.7 -144.9 145.9 -121.1 161 -93C176.1 -64.8 181 -32.4 185.9 0L0 0Z" fill="#959aa4"></path><path d="M0 -148.7C25.5 -144.1 50.9 -139.6 73.7 -127.7C96.6 -115.9 116.7 -96.9 128.8 -74.4C140.9 -51.9 144.8 -25.9 148.7 0L0 0Z" fill="#79808b"></path><path d="M0 -111.5C19.1 -108.1 38.2 -104.7 55.3 -95.8C72.4 -86.9 87.6 -72.6 96.6 -55.8C105.6 -38.9 108.6 -19.5 111.5 0L0 0Z" fill="#5e6673"></path><path d="M0 -74.4C12.7 -72.1 25.5 -69.8 36.9 -63.9C48.3 -58 58.4 -48.4 64.4 -37.2C70.4 -25.9 72.4 -13 74.4 0L0 0Z" fill="#444d5c"></path><path d="M0 -37.2C6.4 -36 12.7 -34.9 18.4 -31.9C24.1 -29 29.2 -24.2 32.2 -18.6C35.2 -13 36.2 -6.5 37.2 0L0 0Z" fill="#374151"></path></g></svg>