<svg id="visual" viewBox="0 0 960 540" width="960" height="540" xmlns="http://www.w3.org/2000/svg" xmlns:xlink="http://www.w3.org/1999/xlink" version="1.1"><path d="M0 387L16 384C32 381 64 375 96 373.7C128 372.3 160 375.7 192 372C224 368.3 256 357.7 288 355.3C320 353 352 359 384 358.3C416 357.7 448 350.3 480 343C512 335.7 544 328.3 576 331C608 333.7 640 346.3 672 355C704 363.7 736 368.3 768 368.5C800 368.7 832 364.3 864 365.5C896 366.7 928 373.3 944 376.7L960 380L960 541L944 541C928 541 896 541 864 541C832 541 800 541 768 541C736 541 704 541 672 541C640 541 608 541 576 541C544 541 512 541 480 541C448 541 416 541 384 541C352 541 320 541 288 541C256 541 224 541 192 541C160 541 128 541 96 541C64 541 32 541 16 541L0 541Z" fill="#e5e7eb"></path><path d="M0 397L16 391.7C32 386.3 64 375.7 96 373.7C128 371.7 160 378.3 192 379.3C224 380.3 256 375.7 288 380.2C320 384.7 352 398.3 384 404C416 409.7 448 407.3 480 401.5C512 395.7 544 386.3 576 385.7C608 385 640 393 672 398.8C704 404.7 736 408.3 768 408.5C800 408.7 832 405.3 864 405.5C896 405.7 928 409.3 944 411.2L960 413L960 541L944 541C928 541 896 541 864 541C832 541 800 541 768 541C736 541 704 541 672 541C640 541 608 541 576 541C544 541 512 541 480 541C448 541 416 541 384 541C352 541 320 541 288 541C256 541 224 541 192 541C160 541 128 541 96 541C64 541 32 541 16 541L0 541Z" fill="#c0c3ca"></path><path d="M0 396L16 396.5C32 397 64 398 96 399.2C128 400.3 160 401.7 192 403.7C224 405.7 256 408.3 288 410.8C320 413.3 352 415.7 384 418.3C416 421 448 424 480 418.8C512 413.7 544 400.3 576 400.5C608 400.7 640 414.3 672 420.3C704 426.3 736 424.7 768 425C800 425.3 832 427.7 864 425.5C896 423.3 928 416.7 944 413.3L960 410L960 541L944 541C928 541 896 541 864 541C832 541 800 541 768 541C736 541 704 541 672 541C640 541 608 541 576 541C544 541 512 541 480 541C448 541 416 541 384 541C352 541 320 541 288 541C256 541 224 541 192 541C160 541 128 541 96 541C64 541 32 541 16 541L0 541Z" fill="#9ba0aa"></path><path d="M0 461L16 458.3C32 455.7 64 450.3 96 444.3C128 438.3 160 431.7 192 429C224 426.3 256 427.7 288 433.2C320 438.7 352 448.3 384 453.5C416 458.7 448 459.3 480 456.5C512 453.7 544 447.3 576 447.2C608 447 640 453 672 452.5C704 452 736 445 768 442.3C800 439.7 832 441.3 864 438.3C896 435.3 928 427.7 944 423.8L960 420L960 541L944 541C928 541 896 541 864 541C832 541 800 541 768 541C736 541 704 541 672 541C640 541 608 541 576 541C544 541 512 541 480 541C448 541 416 541 384 541C352 541 320 541 288 541C256 541 224 541 192 541C160 541 128 541 96 541C64 541 32 541 16 541L0 541Z" fill="#797f8b"></path><path d="M0 478L16 475.3C32 472.7 64 467.3 96 466.8C128 466.3 160 470.7 192 469.3C224 468 256 461 288 459.2C320 457.3 352 460.7 384 463.5C416 466.3 448 468.7 480 469.3C512 470 544 469 576 467.7C608 466.3 640 464.7 672 468C704 471.3 736 479.7 768 479.3C800 479 832 470 864 468.5C896 467 928 473 944 476L960 479L960 541L944 541C928 541 896 541 864 541C832 541 800 541 768 541C736 541 704 541 672 541C640 541 608 541 576 541C544 541 512 541 480 541C448 541 416 541 384 541C352 541 320 541 288 541C256 541 224 541 192 541C160 541 128 541 96 541C64 541 32 541 16 541L0 541Z" fill="#575f6d"></path><path d="M0 503L16 501.5C32 500 64 497 96 496.5C128 496 160 498 192 497.2C224 496.3 256 492.7 288 490.7C320 488.7 352 488.3 384 492C416 495.7 448 503.3 480 504.8C512 506.3 544 501.7 576 498.7C608 495.7 640 494.3 672 493.3C704 492.3 736 491.7 768 495.2C800 498.7 832 506.3 864 507.5C896 508.7 928 503.3 944 500.7L960 498L960 541L944 541C928 541 896 541 864 541C832 541 800 541 768 541C736 541 704 541 672 541C640 541 608 541 576 541C544 541 512 541 480 541C448 541 416 541 384 541C352 541 320 541 288 541C256 541 224 541 192 541C160 541 128 541 96 541C64 541 32 541 16 541L0 541Z" fill="#374151"></path></svg>